<svg width="123" height="18" viewBox="0 0 123 18" fill="none" xmlns="http://www.w3.org/2000/svg">
<path d="M11.8807 5.88068C11.7614 5.46591 11.5938 5.09943 11.3778 4.78125C11.1619 4.45739 10.8977 4.18466 10.5852 3.96307C10.2784 3.7358 9.92614 3.5625 9.52841 3.44318C9.13636 3.32387 8.7017 3.26421 8.22443 3.26421C7.33239 3.26421 6.5483 3.4858 5.87216 3.92898C5.2017 4.37216 4.67898 5.01705 4.30398 5.86364C3.92898 6.70455 3.74148 7.73296 3.74148 8.94887C3.74148 10.1648 3.92614 11.1989 4.29545 12.0511C4.66477 12.9034 5.1875 13.554 5.86364 14.0028C6.53977 14.446 7.33807 14.6676 8.25852 14.6676C9.09375 14.6676 9.80682 14.5199 10.3977 14.2244C10.9943 13.9233 11.4489 13.5 11.7614 12.9545C12.0795 12.4091 12.2386 11.7642 12.2386 11.0199L12.9886 11.1307H8.48864V8.35227H15.7926V10.5511C15.7926 12.0852 15.4688 13.4034 14.821 14.5057C14.1733 15.6023 13.2812 16.4489 12.1449 17.0455C11.0085 17.6364 9.70739 17.9318 8.24148 17.9318C6.60511 17.9318 5.16761 17.571 3.92898 16.8494C2.69034 16.1222 1.72443 15.0909 1.03125 13.7557C0.343749 12.4148 -6.85453e-07 10.8239 -6.85453e-07 8.98296C-6.85453e-07 7.56818 0.204545 6.30682 0.613636 5.19886C1.02841 4.08523 1.60795 3.14205 2.35227 2.36932C3.09659 1.59659 3.96307 1.00852 4.9517 0.605115C5.94034 0.201706 7.01136 1.43051e-06 8.16477 1.43051e-06C9.15341 1.43051e-06 10.0739 0.144888 10.9261 0.434661C11.7784 0.718752 12.5341 1.12216 13.1932 1.64489C13.858 2.16761 14.4006 2.78977 14.821 3.51136C15.2415 4.22727 15.5114 5.01705 15.6307 5.88068H11.8807ZM24.5327 17.9489C23.1861 17.9489 22.027 17.6761 21.0554 17.1307C20.0895 16.5795 19.3452 15.8011 18.8224 14.7955C18.2997 13.7841 18.0384 12.5881 18.0384 11.2074C18.0384 9.8608 18.2997 8.67898 18.8224 7.66193C19.3452 6.64489 20.081 5.85227 21.0298 5.28409C21.9844 4.71591 23.1037 4.43182 24.3878 4.43182C25.2514 4.43182 26.0554 4.57102 26.7997 4.84943C27.5497 5.12216 28.2031 5.53409 28.7599 6.08523C29.3224 6.63637 29.7599 7.32955 30.0724 8.16477C30.3849 8.99432 30.5412 9.96591 30.5412 11.0795V12.0767H19.4872V9.82671H27.1236C27.1236 9.30398 27.0099 8.84091 26.7827 8.4375C26.5554 8.03409 26.2401 7.71875 25.8366 7.49148C25.4389 7.25852 24.9759 7.14205 24.4474 7.14205C23.8963 7.14205 23.4077 7.26989 22.9815 7.52557C22.5611 7.77557 22.2315 8.11364 21.9929 8.53977C21.7543 8.96023 21.6321 9.42898 21.6264 9.94602V12.0852C21.6264 12.733 21.7457 13.2926 21.9844 13.7642C22.2287 14.2358 22.5724 14.5994 23.0156 14.8551C23.4588 15.1108 23.9844 15.2386 24.5923 15.2386C24.9957 15.2386 25.3651 15.1818 25.7003 15.0682C26.0355 14.9545 26.3224 14.7841 26.5611 14.5568C26.7997 14.3295 26.9815 14.0511 27.1065 13.7216L30.4645 13.9432C30.294 14.75 29.9446 15.4545 29.4162 16.0568C28.8935 16.6534 28.2173 17.1193 27.3878 17.4545C26.5639 17.7841 25.6122 17.9489 24.5327 17.9489ZM38.9467 17.9489C37.6001 17.9489 36.4411 17.6761 35.4695 17.1307C34.5036 16.5795 33.7592 15.8011 33.2365 14.7955C32.7138 13.7841 32.4524 12.5881 32.4524 11.2074C32.4524 9.8608 32.7138 8.67898 33.2365 7.66193C33.7592 6.64489 34.495 5.85227 35.4439 5.28409C36.3984 4.71591 37.5178 4.43182 38.8018 4.43182C39.6655 4.43182 40.4695 4.57102 41.2138 4.84943C41.9638 5.12216 42.6172 5.53409 43.174 6.08523C43.7365 6.63637 44.174 7.32955 44.4865 8.16477C44.799 8.99432 44.9553 9.96591 44.9553 11.0795V12.0767H33.9013V9.82671H41.5376C41.5376 9.30398 41.424 8.84091 41.1967 8.4375C40.9695 8.03409 40.6541 7.71875 40.2507 7.49148C39.853 7.25852 39.3899 7.14205 38.8615 7.14205C38.3104 7.14205 37.8217 7.26989 37.3956 7.52557C36.9751 7.77557 36.6456 8.11364 36.407 8.53977C36.1683 8.96023 36.0462 9.42898 36.0405 9.94602V12.0852C36.0405 12.733 36.1598 13.2926 36.3984 13.7642C36.6428 14.2358 36.9865 14.5994 37.4297 14.8551C37.8729 15.1108 38.3984 15.2386 39.0064 15.2386C39.4098 15.2386 39.7791 15.1818 40.1143 15.0682C40.4496 14.9545 40.7365 14.7841 40.9751 14.5568C41.2138 14.3295 41.3956 14.0511 41.5206 13.7216L44.8786 13.9432C44.7081 14.75 44.3587 15.4545 43.8303 16.0568C43.3075 16.6534 42.6314 17.1193 41.8018 17.4545C40.978 17.7841 40.0263 17.9489 38.9467 17.9489ZM50.6847 13.9261L50.6932 9.57102H51.2216L55.4148 4.60227H59.5824L53.9489 11.1818H53.0881L50.6847 13.9261ZM47.3949 17.6932V0.238638H51.0256V17.6932H47.3949ZM55.5767 17.6932L51.7244 11.9915L54.1449 9.42614L59.8295 17.6932H55.5767ZM70.9709 5.25852C70.9027 4.57102 70.6101 4.03693 70.093 3.65625C69.576 3.27557 68.8743 3.08523 67.9879 3.08523C67.3857 3.08523 66.8771 3.17046 66.4624 3.34091C66.0476 3.50568 65.7294 3.7358 65.5078 4.03125C65.2919 4.32671 65.1839 4.66193 65.1839 5.03693C65.1726 5.34943 65.2379 5.62216 65.38 5.85512C65.5277 6.08807 65.7294 6.28977 65.9851 6.46023C66.2408 6.625 66.5362 6.76989 66.8714 6.89489C67.2067 7.01421 67.5646 7.11648 67.9453 7.20171L69.5135 7.57671C70.2749 7.74716 70.9737 7.97443 71.6101 8.25852C72.2464 8.54262 72.7976 8.89205 73.2635 9.30682C73.7294 9.72159 74.0902 10.2102 74.3459 10.7727C74.6072 11.3352 74.7408 11.9801 74.7464 12.7074C74.7408 13.7756 74.468 14.7017 73.9283 15.4858C73.3942 16.2642 72.6214 16.8693 71.6101 17.3011C70.6044 17.7273 69.3913 17.9403 67.9709 17.9403C66.5618 17.9403 65.3345 17.7244 64.2891 17.2926C63.2493 16.8608 62.4368 16.2216 61.8516 15.375C61.272 14.5227 60.968 13.4688 60.9396 12.2131H64.5107C64.5504 12.7983 64.718 13.2869 65.0135 13.679C65.3146 14.0653 65.7152 14.358 66.2152 14.5568C66.7209 14.75 67.2919 14.8466 67.9283 14.8466C68.5533 14.8466 69.0959 14.7557 69.5561 14.5739C70.022 14.392 70.3828 14.1392 70.6385 13.8153C70.8942 13.4915 71.022 13.1193 71.022 12.6989C71.022 12.3068 70.9055 11.9773 70.6726 11.7102C70.4453 11.4432 70.1101 11.2159 69.6669 11.0284C69.2294 10.8409 68.6925 10.6705 68.0561 10.517L66.1555 10.0398C64.6839 9.68182 63.522 9.12216 62.6697 8.3608C61.8175 7.59943 61.3942 6.57386 61.3999 5.28409C61.3942 4.22727 61.6754 3.30398 62.2436 2.51421C62.8175 1.72443 63.6044 1.10796 64.6044 0.664774C65.6044 0.221592 66.7408 1.43051e-06 68.0135 1.43051e-06C69.3089 1.43051e-06 70.4396 0.221592 71.4055 0.664774C72.3771 1.10796 73.1328 1.72443 73.6726 2.51421C74.2124 3.30398 74.4908 4.21875 74.5078 5.25852H70.9709ZM84.1939 4.60227V7.32955H76.3104V4.60227H84.1939ZM78.1001 1.46591H81.7308V13.6705C81.7308 14.0057 81.782 14.267 81.8842 14.4545C81.9865 14.6364 82.1286 14.7642 82.3104 14.8381C82.4979 14.9119 82.7138 14.9489 82.9581 14.9489C83.1286 14.9489 83.299 14.9347 83.4695 14.9063C83.6399 14.8722 83.7706 14.8466 83.8615 14.8295L84.4325 17.5313C84.2507 17.5881 83.995 17.6534 83.6655 17.7273C83.3359 17.8068 82.9354 17.8551 82.4638 17.8722C81.5888 17.9063 80.8217 17.7898 80.1626 17.5227C79.5092 17.2557 79.0007 16.8409 78.6371 16.2784C78.2734 15.7159 78.0945 15.0057 78.1001 14.1477V1.46591ZM92.4034 17.9489C91.0795 17.9489 89.9347 17.6676 88.9687 17.1051C88.0085 16.5369 87.267 15.7472 86.7443 14.7358C86.2216 13.7188 85.9602 12.5398 85.9602 11.1989C85.9602 9.84659 86.2216 8.66477 86.7443 7.65341C87.267 6.63637 88.0085 5.84659 88.9687 5.28409C89.9347 4.71591 91.0795 4.43182 92.4034 4.43182C93.7273 4.43182 94.8693 4.71591 95.8295 5.28409C96.7955 5.84659 97.5398 6.63637 98.0625 7.65341C98.5852 8.66477 98.8466 9.84659 98.8466 11.1989C98.8466 12.5398 98.5852 13.7188 98.0625 14.7358C97.5398 15.7472 96.7955 16.5369 95.8295 17.1051C94.8693 17.6676 93.7273 17.9489 92.4034 17.9489ZM92.4205 15.1364C93.0227 15.1364 93.5256 14.9659 93.929 14.625C94.3324 14.2784 94.6364 13.8068 94.8409 13.2102C95.0511 12.6136 95.1562 11.9347 95.1562 11.1733C95.1562 10.4119 95.0511 9.73296 94.8409 9.13637C94.6364 8.53977 94.3324 8.06818 93.929 7.72159C93.5256 7.375 93.0227 7.20171 92.4205 7.20171C91.8125 7.20171 91.3011 7.375 90.8864 7.72159C90.4773 8.06818 90.1676 8.53977 89.9574 9.13637C89.7528 9.73296 89.6506 10.4119 89.6506 11.1733C89.6506 11.9347 89.7528 12.6136 89.9574 13.2102C90.1676 13.8068 90.4773 14.2784 90.8864 14.625C91.3011 14.9659 91.8125 15.1364 92.4205 15.1364ZM101.278 17.6932V4.60227H104.798V6.88637H104.934C105.173 6.07387 105.573 5.46023 106.136 5.04546C106.698 4.625 107.346 4.41477 108.079 4.41477C108.261 4.41477 108.457 4.42614 108.667 4.44886C108.877 4.47159 109.062 4.50284 109.221 4.54261V7.76421C109.05 7.71307 108.815 7.66762 108.513 7.62784C108.212 7.58807 107.937 7.56818 107.687 7.56818C107.153 7.56818 106.675 7.68466 106.255 7.91762C105.84 8.14489 105.511 8.46307 105.266 8.87216C105.028 9.28125 104.908 9.75284 104.908 10.2869V17.6932H101.278ZM116.525 17.9489C115.178 17.9489 114.019 17.6761 113.048 17.1307C112.082 16.5795 111.337 15.8011 110.815 14.7955C110.292 13.7841 110.031 12.5881 110.031 11.2074C110.031 9.8608 110.292 8.67898 110.815 7.66193C111.337 6.64489 112.073 5.85227 113.022 5.28409C113.977 4.71591 115.096 4.43182 116.38 4.43182C117.244 4.43182 118.048 4.57102 118.792 4.84943C119.542 5.12216 120.195 5.53409 120.752 6.08523C121.315 6.63637 121.752 7.32955 122.065 8.16477C122.377 8.99432 122.533 9.96591 122.533 11.0795V12.0767H111.479V9.82671H119.116C119.116 9.30398 119.002 8.84091 118.775 8.4375C118.548 8.03409 118.232 7.71875 117.829 7.49148C117.431 7.25852 116.968 7.14205 116.44 7.14205C115.888 7.14205 115.4 7.26989 114.974 7.52557C114.553 7.77557 114.224 8.11364 113.985 8.53977C113.746 8.96023 113.624 9.42898 113.619 9.94602V12.0852C113.619 12.733 113.738 13.2926 113.977 13.7642C114.221 14.2358 114.565 14.5994 115.008 14.8551C115.451 15.1108 115.977 15.2386 116.585 15.2386C116.988 15.2386 117.357 15.1818 117.692 15.0682C118.028 14.9545 118.315 14.7841 118.553 14.5568C118.792 14.3295 118.974 14.0511 119.099 13.7216L122.457 13.9432C122.286 14.75 121.937 15.4545 121.408 16.0568C120.886 16.6534 120.21 17.1193 119.38 17.4545C118.556 17.7841 117.604 17.9489 116.525 17.9489Z" fill="#09235C"/>
</svg>
