<svg width="32" height="32" viewBox="0 0 32 32" fill="none" xmlns="http://www.w3.org/2000/svg">
<path d="M26.6666 17.3333C26.6666 24 22 27.3333 16.4533 29.2667C16.1629 29.3651 15.8474 29.3604 15.56 29.2533C9.99998 27.3333 5.33331 24 5.33331 17.3333V8.00001C5.33331 7.64639 5.47379 7.30725 5.72384 7.0572C5.97389 6.80715 6.31302 6.66668 6.66665 6.66668C9.33331 6.66668 12.6666 5.06668 14.9866 3.04001C15.2691 2.79867 15.6285 2.66608 16 2.66608C16.3715 2.66608 16.7308 2.79867 17.0133 3.04001C19.3466 5.08001 22.6666 6.66668 25.3333 6.66668C25.6869 6.66668 26.0261 6.80715 26.2761 7.0572C26.5262 7.30725 26.6666 7.64639 26.6666 8.00001V17.3333Z" stroke="#09235C" stroke-width="2.66667" stroke-linecap="round" stroke-linejoin="round"/>
</svg>
