<svg width="15" height="15" viewBox="0 0 15 15" fill="none" xmlns="http://www.w3.org/2000/svg">
<path d="M7.01786 0.863222C7.04708 0.804196 7.09221 0.75451 7.14817 0.719772C7.20412 0.685034 7.26867 0.666626 7.33453 0.666626C7.40039 0.666626 7.46494 0.685034 7.5209 0.719772C7.57685 0.75451 7.62198 0.804196 7.6512 0.863222L9.1912 3.98256C9.29265 4.18787 9.4424 4.36549 9.62761 4.50019C9.81282 4.63489 10.0279 4.72263 10.2545 4.75589L13.6985 5.25989C13.7638 5.26934 13.8251 5.29687 13.8755 5.33935C13.926 5.38184 13.9635 5.43759 13.9839 5.50029C14.0043 5.563 14.0067 5.63016 13.9909 5.69418C13.9751 5.7582 13.9417 5.81652 13.8945 5.86256L11.4039 8.28789C11.2396 8.44796 11.1167 8.64554 11.0458 8.86364C10.9748 9.08174 10.9579 9.31382 10.9965 9.53989L11.5845 12.9666C11.596 13.0318 11.589 13.0989 11.5642 13.1603C11.5394 13.2218 11.4978 13.275 11.4442 13.3139C11.3906 13.3528 11.3272 13.3759 11.2611 13.3805C11.195 13.3851 11.129 13.371 11.0705 13.3399L7.99186 11.7212C7.78901 11.6147 7.56332 11.5591 7.3342 11.5591C7.10508 11.5591 6.87938 11.6147 6.67653 11.7212L3.59853 13.3399C3.54008 13.3708 3.47413 13.3847 3.40816 13.3801C3.3422 13.3754 3.27888 13.3523 3.22539 13.3134C3.17191 13.2745 3.13042 13.2213 3.10563 13.16C3.08085 13.0987 3.07377 13.0317 3.0852 12.9666L3.67253 9.54056C3.71133 9.31438 3.69452 9.08215 3.62356 8.86392C3.55259 8.64569 3.4296 8.44799 3.2652 8.28789L0.774531 5.86322C0.726926 5.81724 0.693193 5.75882 0.677172 5.6946C0.661152 5.63039 0.663489 5.56297 0.683916 5.50002C0.704344 5.43706 0.742042 5.38112 0.792715 5.33854C0.843388 5.29597 0.905 5.26849 0.970531 5.25922L4.41386 4.75589C4.6407 4.72289 4.85612 4.63526 5.04159 4.50055C5.22705 4.36583 5.377 4.18807 5.47853 3.98256L7.01786 0.863222Z" fill="#F5AB00" stroke="#F5AB00" stroke-width="1.33333" stroke-linecap="round" stroke-linejoin="round"/>
</svg>
