<svg width="27" height="27" viewBox="0 0 27 27" fill="none" xmlns="http://www.w3.org/2000/svg">
<path d="M1.33331 16H5.33331C6.04056 16 6.71883 16.2809 7.21893 16.781C7.71903 17.2811 7.99998 17.9594 7.99998 18.6666V22.6666C7.99998 23.3739 7.71903 24.0522 7.21893 24.5523C6.71883 25.0524 6.04056 25.3333 5.33331 25.3333H3.99998C3.29274 25.3333 2.61446 25.0524 2.11436 24.5523C1.61426 24.0522 1.33331 23.3739 1.33331 22.6666V13.3333C1.33331 10.1507 2.59759 7.09847 4.84803 4.84803C7.09847 2.5976 10.1507 1.33331 13.3333 1.33331C16.5159 1.33331 19.5682 2.5976 21.8186 4.84803C24.069 7.09847 25.3333 10.1507 25.3333 13.3333V22.6666C25.3333 23.3739 25.0524 24.0522 24.5523 24.5523C24.0522 25.0524 23.3739 25.3333 22.6666 25.3333H21.3333C20.6261 25.3333 19.9478 25.0524 19.4477 24.5523C18.9476 24.0522 18.6666 23.3739 18.6666 22.6666V18.6666C18.6666 17.9594 18.9476 17.2811 19.4477 16.781C19.9478 16.2809 20.6261 16 21.3333 16H25.3333" stroke="#09235C" stroke-width="2.66667" stroke-linecap="round" stroke-linejoin="round"/>
</svg>
