<svg width="16" height="16" viewBox="0 0 16 16" fill="none" xmlns="http://www.w3.org/2000/svg">
<path d="M11.3333 1.33325H4.66667C2.82572 1.33325 1.33334 2.82564 1.33334 4.66658V11.3333C1.33334 13.1742 2.82572 14.6666 4.66667 14.6666H11.3333C13.1743 14.6666 14.6667 13.1742 14.6667 11.3333V4.66658C14.6667 2.82564 13.1743 1.33325 11.3333 1.33325Z" stroke="white" stroke-width="1.33333" stroke-linecap="round" stroke-linejoin="round"/>
<path d="M10.6667 7.57996C10.7489 8.13479 10.6542 8.70143 10.3958 9.1993C10.1375 9.69717 9.72876 10.1009 9.22775 10.3531C8.72674 10.6052 8.15897 10.693 7.60519 10.6039C7.05142 10.5148 6.53984 10.2533 6.14323 9.85673C5.74661 9.46012 5.48516 8.94854 5.39605 8.39477C5.30694 7.84099 5.39471 7.27322 5.64688 6.77221C5.89906 6.27119 6.30279 5.86245 6.80066 5.60412C7.29852 5.34579 7.86517 5.25102 8.42 5.33329C8.98595 5.41721 9.5099 5.68093 9.91446 6.08549C10.319 6.49006 10.5827 7.01401 10.6667 7.57996Z" stroke="white" stroke-width="1.33333" stroke-linecap="round" stroke-linejoin="round"/>
<path d="M11.6667 4.33325H11.6733" stroke="white" stroke-width="1.33333" stroke-linecap="round" stroke-linejoin="round"/>
</svg>
